<svg width="370" height="85" viewBox="0 0 369.8158844765343 84.99932925476863" preserveAspectRatio="xMidYMid meet" xmlns="http://www.w3.org/2000/svg">
  <title>k8shell logo</title>
  <g transform="matrix(2.905341978858172,0,0,2.905341978858172,-2.907918776381993,-3.949120918632292)" fill="#fff">
    <path d="M28,8.51A15.8,15.8,0,0,0,11.33,1.74C.49,4-1.82,15.6,4.41,21.83a9.11,9.11,0,0,0,11.87.86C21.84,18.22,19,11,14.36,10.53,8.5,9.9,7,15.36,9.87,17.85A3.18,3.18,0,0,0,14,17.58a1.18,1.18,0,0,1,1.59,1.74c-3,3-8.64,1.73-9.39-3.78A6.36,6.36,0,0,1,8,10.2a7.77,7.77,0,0,1,11,0,9.42,9.42,0,0,1,.54,12.72,1.17,1.17,0,0,0,.08,1.57l5.78,5.78a1.19,1.19,0,0,0,1.79-.13A18.91,18.91,0,0,0,28,8.51Z"/>
  </g>
  <g transform="matrix(4.074664875605182,0,0,4.074664875605182,101.5399542737994,-10.30708223356293)" fill="#fff">
    <path d="M4.18 5.72 l0 7.66 l3.58 -3.72 l3.36 0 l-3.9 3.8 l4.34 6.54 l-3.44 0 l-2.84 -4.62 l-1.1 1.06 l0 3.56 l-2.84 0 l0 -14.28 l2.84 0 z M17.06 5.72 c0.94666 0 1.77334 0.17998 2.48 0.53998 s1.25 0.83334 1.63 1.42 s0.57 1.19332 0.57 1.81998 c0 0.68 -0.17 1.28 -0.51 1.8 s-0.85 0.89334 -1.53 1.12 l0 0.04 c0.88 0.21334 1.53666 0.62 1.97 1.22 s0.65 1.33334 0.65 2.2 c0 1.32 -0.49334 2.38334 -1.48 3.19 s-2.24 1.21 -3.76 1.21 c-1.54666 0 -2.82 -0.39334 -3.82 -1.18 s-1.5 -1.85332 -1.5 -3.19998 c0 -0.88 0.23 -1.62334 0.69 -2.23 s1.11 -1.01 1.95 -1.21 l0 -0.04 c-0.66666 -0.18666 -1.17666 -0.53332 -1.53 -1.03998 s-0.53 -1.12 -0.53 -1.84 c0 -1.13334 0.46334 -2.05334 1.39 -2.76 s2.03666 -1.06 3.33 -1.06 z M14.92002 9.79998 c0 0.6 0.21334 1.05666 0.64 1.37 s0.92666 0.47 1.5 0.47 c0.6 0 1.1 -0.15666 1.5 -0.47 s0.6 -0.77 0.6 -1.37 c0 -0.61334 -0.19334 -1.09 -0.58 -1.43 s-0.9 -0.51 -1.54 -0.51 c-0.61334 0 -1.12 0.18334 -1.52 0.55 s-0.6 0.83 -0.6 1.39 z M14.60002 15.75998 c0 0.72 0.236622 1.29668 0.70996 1.73002 s1.06334 0.65 1.77 0.65 c0.69334 0 1.26668 -0.22 1.72002 -0.66 s0.68 -1.00666 0.68 -1.7 c0 -0.64 -0.22666 -1.17334 -0.68 -1.6 s-1.03334 -0.64 -1.74 -0.64 s-1.29332 0.19334 -1.75998 0.58 s-0.7 0.93332 -0.7 1.63998 z M27.92 9.38 c1.38666 0 2.46992 0.28002 3.24992 0.84002 s1.21666 1.38 1.31 2.46 l-2.7 0 c-0.04 -0.49334 -0.22 -0.85 -0.54 -1.07 s-0.78666 -0.33 -1.4 -0.33 c-0.53334 0 -0.93 0.08 -1.19 0.24 s-0.39 0.4 -0.39 0.72 c0 0.24 0.08666 0.44 0.26 0.6 s0.43668 0.3 0.79002 0.42 s0.74334 0.22 1.17 0.3 c1.29334 0.25334 2.20668 0.51334 2.74002 0.78 s0.92334 0.58666 1.17 0.96 s0.37 0.83334 0.37 1.38 c0 1.16 -0.42334 2.05 -1.27 2.67 s-1.99666 0.93 -3.45 0.93 c-1.52 0 -2.70334 -0.32666 -3.55 -0.98 s-1.28332 -1.54 -1.30998 -2.66 l2.7 0 c0 0.53334 0.20666 0.95668 0.62 1.27002 s0.93334 0.47 1.56 0.47 c0.53334 0 0.97668 -0.11666 1.33002 -0.35 s0.53 -0.55668 0.53 -0.97002 c0 -0.26666 -0.11 -0.48666 -0.33 -0.66 s-0.53 -0.32668 -0.93 -0.46002 s-1.02 -0.28668 -1.86 -0.46002 c-0.66666 -0.13334 -1.26 -0.31334 -1.78 -0.54 s-0.91666 -0.52332 -1.19 -0.88998 s-0.41 -0.81666 -0.41 -1.35 c0 -0.68 0.16334 -1.27334 0.49 -1.78 s0.82666 -0.89 1.5 -1.15 s1.51 -0.39 2.51 -0.39 z M37.26 5.72 l0 5.38 l0.06 0 c0.32 -0.53334 0.75334 -0.95334 1.3 -1.26 s1.12666 -0.46 1.74 -0.46 c1.32 0 2.27666 0.33334 2.87 1 s0.89 1.72 0.89 3.16 l0 6.46 l-2.84 0 l0 -5.88 c0 -0.84 -0.13666 -1.46666 -0.41 -1.88 s-0.74334 -0.62 -1.41 -0.62 c-0.76 0 -1.31666 0.23 -1.67 0.69 s-0.53 1.21666 -0.53 2.27 l0 5.42 l-2.84 0 l0 -14.28 l2.84 0 z M51.06 9.38 c0.97334 0 1.84004 0.22664 2.60004 0.67998 s1.35666 1.11 1.79 1.97 s0.65 1.85 0.65 2.97 c0 0.10666 -0.00666 0.28 -0.02 0.52 l-7.46 0 c0.02666 0.82666 0.24332 1.47 0.64998 1.93 s1.03 0.69 1.87 0.69 c0.52 0 0.99666 -0.13 1.43 -0.39 s0.71 -0.57666 0.83 -0.95 l2.5 0 c-0.73334 2.32 -2.34668 3.48 -4.84002 3.48 c-0.94666 -0.01334 -1.82332 -0.22 -2.62998 -0.62 s-1.45 -1.02334 -1.93 -1.87 s-0.72 -1.83 -0.72 -2.95 c0 -1.05334 0.24334 -2.01334 0.73 -2.88 s1.13332 -1.51332 1.93998 -1.93998 s1.67666 -0.64 2.61 -0.64 z M53.24004 13.71998 c-0.13334 -0.77334 -0.38 -1.33334 -0.74 -1.68 s-0.87334 -0.52 -1.54 -0.52 c-0.69334 0 -1.24 0.19666 -1.64 0.59 s-0.63334 0.93 -0.7 1.61 l4.62 0 z M60.68 5.72 l0 14.28 l-2.84 0 l0 -14.28 l2.84 0 z M65.84 5.72 l0 14.28 l-2.84 0 l0 -14.28 l2.84 0 z"/>
  </g>
</svg>
