<svg width="370" height="85" viewBox="0 0 369.8158844765343 84.99932925476863" preserveAspectRatio="xMidYMid meet" xmlns="http://www.w3.org/2000/svg">
  <title>k8shell logo</title>
  <g transform="matrix(2.905341978858172,0,0,2.905341978858172,-2.907918776381993,-3.949120918632292)" fill="#111">
    <path d="M28,8.51A15.8,15.8,0,0,0,11.33,1.74C.49,4-1.82,15.6,4.41,21.83a9.11,9.11,0,0,0,11.87.86C21.84,18.22,19,11,14.36,10.53,8.5,9.9,7,15.36,9.87,17.85A3.18,3.18,0,0,0,14,17.58a1.18,1.18,0,0,1,1.59,1.74c-3,3-8.64,1.73-9.39-3.78A6.36,6.36,0,0,1,8,10.2a7.77,7.77,0,0,1,11,0,9.42,9.42,0,0,1,.54,12.72,1.17,1.17,0,0,0,.08,1.57l5.78,5.78a1.19,1.19,0,0,0,1.79-.13A18.91,18.91,0,0,0,28,8.51Z"/>
  </g>
  <g transform="matrix(3.985682516745655,0,0,3.985682516745655,101.81861196802204,-8.522684070009316)" fill="#111">
    <path d="M8.06 20 l-2.94 -3.9 l-1.18 1.32 l0 2.58 l-2.64 0 l0 -14.6 l2.64 0 l0 8.66 l3.64 -4.18 l3.08 0 l-3.88 4.36 l4.28 5.76 l-3 0 z M20.28 12.38 c1.48 0.66 2.42 1.88 2.42 3.58 c0 2.42 -2.14 4.32 -5.42 4.32 c-3.3 0 -5.42 -1.9 -5.42 -4.32 c0 -1.7 0.92 -2.92 2.42 -3.58 c-1.14 -0.58 -1.82 -1.58 -1.82 -2.92 c0 -2.04 1.84 -3.74 4.82 -3.74 c2.96 0 4.82 1.7 4.82 3.74 c0 1.34 -0.68 2.34 -1.82 2.92 z M17.28 7.9 c-1.38 0 -2.16 0.82 -2.16 1.8 s0.78 1.8 2.16 1.8 c1.36 0 2.16 -0.82 2.16 -1.8 s-0.8 -1.8 -2.16 -1.8 z M17.28 17.96 c1.66 0 2.66 -0.98 2.66 -2.22 c0 -1.26 -1 -2.22 -2.66 -2.22 c-1.68 0 -2.66 0.96 -2.66 2.22 c0 1.24 0.98 2.22 2.66 2.22 z M28.68 20.28 c-2.5 0 -4.42 -1.48 -4.92 -3.12 l2.38 -0.7 c0.34 0.96 1.3 1.68 2.64 1.68 c1.02 0 1.68 -0.48 1.68 -1.04 c0 -0.5 -0.38 -0.78 -1.12 -1 l-2.58 -0.76 c-1.44 -0.42 -2.5 -1.26 -2.5 -2.7 c0 -1.7 1.84 -3.04 4.06 -3.04 c2.18 0 3.84 1.04 4.48 2.56 l-2.34 0.68 c-0.36 -0.64 -1.1 -1.18 -2.16 -1.18 c-0.82 0 -1.44 0.44 -1.44 0.92 c0 0.4 0.28 0.64 0.84 0.8 l2.52 0.72 c1.52 0.44 2.84 1.06 2.84 2.88 c0 1.9 -1.8 3.3 -4.38 3.3 z M40.98 9.6 c2.64 0 3.98 1.78 3.98 4.48 l0 5.92 l-2.64 0 l0 -5.42 c0 -1.54 -0.7 -2.52 -2.16 -2.52 c-1.48 0 -2.44 1.16 -2.44 2.94 l0 5 l-2.64 0 l0 -14.6 l2.64 0 l0 5.76 c0.7 -0.9 1.8 -1.56 3.26 -1.56 z M52.34 20.28 c-3.24 0 -5.5 -2.14 -5.5 -5.34 c0 -3.02 2.12 -5.34 5.3 -5.34 c3.32 0 5.22 2.3 5.22 5.2 c0 0.32 0 0.62 -0.06 0.94 l-7.86 0 c0.18 1.3 1.1 2.3 2.94 2.3 c1.28 0 2.06 -0.58 2.46 -1.34 l2.38 0.7 c-0.58 1.32 -2.22 2.88 -4.88 2.88 z M49.44 14.08 l5.34 0 c-0.12 -1.24 -1.08 -2.24 -2.66 -2.24 c-1.54 0 -2.54 1.08 -2.68 2.24 z M59.36 20 l0 -14.6 l2.64 0 l0 14.6 l-2.64 0 z M64.6 20 l0 -14.6 l2.64 0 l0 14.6 l-2.64 0 z"/>
  </g>
</svg>